# xmcd
# 
# Track frame offsets:
#     150
#     18050
#     29002
#     46875
#     63860
#     83997
#     114800
#     135650
#     152557
#     171135
#     191520
#     209062
# 
# Disc length: 3036
# 
# Revision: 11
# Processed by: cddbd v1.5.2PL0 Copyright (c) Steve Scherf et al.
# Submitted via: fre:ac v1.1beta1pre2
# 
DISCID=970bda0c
DTITLE=SIAM SHADE - SIAM SHADE V
DYEAR=1998
DGENRE=J-Rock
TTITLE0=BLOW OUT
TTITLE1=MONKEY SCIENCE
TTITLE2=Wake Up
TTITLE3=NEVER END
TTITLE4=DEAD SPACE
TTITLE5=Solomon's seal
TTITLE6=Tears I Cried
TTITLE7=知りたがり症候群
TTITLE8=グレイシャルLOVE
TTITLE9=警告
TTITLE10=Dreams
TTITLE11=Grayish Wing
EXTD=YEAR: 1998
EXTT0=
EXTT1=
EXTT2=
EXTT3=
EXTT4=
EXTT5=
EXTT6=
EXTT7=
EXTT8=
EXTT9=
EXTT10=
EXTT11=
PLAYORDER=
